G04 Layer_Color=16711935*
%FSLAX25Y25*%
%MOIN*%
G70*
G01*
G75*
%ADD55C,0.00394*%
D55*
X416142Y327302D02*
X415878Y328287D01*
X415158Y329007D01*
X414173Y329271D01*
X413189Y329007D01*
X412468Y328287D01*
X412205Y327302D01*
X412468Y326318D01*
X413189Y325598D01*
X414173Y325334D01*
X415158Y325598D01*
X415878Y326318D01*
X416142Y327302D01*
X336558Y186485D02*
Y189635D01*
Y186485D02*
X338132Y188060D01*
X336558Y189635D02*
X338132Y188060D01*
Y186485D02*
Y189635D01*
X335770Y188060D02*
X338920D01*
X336144Y184843D02*
X337325Y186024D01*
X336931Y184450D02*
X338113Y185631D01*
X336931Y176497D02*
X338113Y177678D01*
X336144Y176891D02*
X337325Y178072D01*
X335770Y180107D02*
X338920D01*
X338132Y178532D02*
Y181682D01*
X336558D02*
X338132Y180107D01*
X336558Y178532D02*
X338132Y180107D01*
X336558Y178532D02*
Y181682D01*
X500641Y185678D02*
Y188828D01*
X499066Y187253D02*
X500641Y188828D01*
X499066Y187253D02*
X500641Y185678D01*
X499066D02*
Y188828D01*
X498279Y187253D02*
X501428D01*
X499873Y189288D02*
X501054Y190469D01*
X499086Y189682D02*
X500267Y190863D01*
X499086Y181729D02*
X500267Y182910D01*
X499873Y181335D02*
X501054Y182517D01*
X498279Y179300D02*
X501428D01*
X499066Y177725D02*
Y180875D01*
Y179300D02*
X500641Y177725D01*
X499066Y179300D02*
X500641Y180875D01*
Y177725D02*
Y180875D01*
X417717Y323759D02*
Y351318D01*
X390158Y323759D02*
Y351318D01*
Y323759D02*
X417717D01*
X390158Y351318D02*
X417717D01*
M02*
