G04 Layer_Color=255*
%FSLAX25Y25*%
%MOIN*%
G70*
G01*
G75*
%ADD39C,0.06299*%
%ADD40R,0.06299X0.06299*%
%ADD41C,0.13780*%
%ADD42R,0.06299X0.06299*%
%ADD43C,0.02598*%
%ADD44O,0.08268X0.03937*%
%ADD45O,0.06299X0.03937*%
D39*
X516500Y267600D02*
D03*
X506500D02*
D03*
X516500Y287600D02*
D03*
X506500D02*
D03*
X516500Y307600D02*
D03*
X506500D02*
D03*
X516500Y327600D02*
D03*
X506500D02*
D03*
X516500Y347600D02*
D03*
X506500D02*
D03*
X516500Y367600D02*
D03*
Y357600D02*
D03*
X506500D02*
D03*
Y337600D02*
D03*
X516500D02*
D03*
X506500Y317600D02*
D03*
X516500D02*
D03*
X506500Y297600D02*
D03*
X516500D02*
D03*
X506500Y277600D02*
D03*
X516500D02*
D03*
X506500Y257600D02*
D03*
X516500D02*
D03*
X393307Y378937D02*
D03*
X413307Y378937D02*
D03*
X433307Y378937D02*
D03*
X443307D02*
D03*
X423307D02*
D03*
X403307D02*
D03*
X383307D02*
D03*
X513900Y233500D02*
D03*
X523900D02*
D03*
X503900D02*
D03*
X513900Y222300D02*
D03*
X523900D02*
D03*
X503900D02*
D03*
X513900Y211300D02*
D03*
X523900D02*
D03*
X503900D02*
D03*
X445900Y181200D02*
D03*
X435900D02*
D03*
X455900D02*
D03*
X393800Y181200D02*
D03*
X383800D02*
D03*
X333100Y282000D02*
D03*
Y272000D02*
D03*
X343100D02*
D03*
X315700Y271600D02*
D03*
Y281600D02*
D03*
X305700D02*
D03*
D40*
X506500Y367600D02*
D03*
D41*
X305118Y182087D02*
D03*
X531496D02*
D03*
Y383858D02*
D03*
X305118D02*
D03*
X364173Y206693D02*
D03*
X472441D02*
D03*
D42*
X453307Y378937D02*
D03*
X533900Y233500D02*
D03*
Y222300D02*
D03*
Y211300D02*
D03*
X425900Y181200D02*
D03*
X403800Y181200D02*
D03*
X343100Y282000D02*
D03*
X305700Y271600D02*
D03*
D43*
X319800Y230656D02*
D03*
Y207900D02*
D03*
D44*
X321768Y236286D02*
D03*
Y202270D02*
D03*
D45*
X305312Y236286D02*
D03*
Y202270D02*
D03*
M02*
