G04 Layer_Color=32768*
%FSLAX25Y25*%
%MOIN*%
G70*
G01*
G75*
%ADD55C,0.00394*%
%ADD87C,0.00197*%
%ADD88C,0.00591*%
D55*
X509531Y312600D02*
X513469D01*
X511500Y310631D02*
Y314568D01*
X501657Y372836D02*
X521736D01*
X501657Y252364D02*
Y372836D01*
Y252364D02*
X521736D01*
Y372836D01*
X458071Y373819D02*
Y384055D01*
X377756D02*
X458071D01*
X377756Y373819D02*
Y384055D01*
Y373819D02*
X458071D01*
X416339Y378937D02*
X420276D01*
X418307Y376969D02*
Y380906D01*
X401968Y337539D02*
X405905D01*
X403937Y335570D02*
Y339507D01*
X538585Y228382D02*
Y238618D01*
X498428D02*
X538585D01*
X498428Y228382D02*
Y238618D01*
Y228382D02*
X538585D01*
X516931Y233500D02*
X520868D01*
X518900Y231532D02*
Y235469D01*
X538585Y217182D02*
Y227418D01*
X498428D02*
X538585D01*
X498428Y217182D02*
Y227418D01*
Y217182D02*
X538585D01*
X516931Y222300D02*
X520868D01*
X518900Y220332D02*
Y224269D01*
X538585Y206182D02*
Y216418D01*
X498428D02*
X538585D01*
X498428Y206182D02*
Y216418D01*
Y206182D02*
X538585D01*
X516931Y211300D02*
X520868D01*
X518900Y209331D02*
Y213268D01*
X421215Y176082D02*
Y186318D01*
Y176082D02*
X461373D01*
Y186318D01*
X421215D02*
X461373D01*
X438932Y181200D02*
X442869D01*
X440900Y179232D02*
Y183168D01*
X378052Y176082D02*
X408367D01*
X378052D02*
Y186318D01*
X408367D01*
Y176082D02*
Y186318D01*
X336132Y277000D02*
X340069D01*
X338100Y275031D02*
Y278969D01*
X327864Y266764D02*
X348336D01*
X327864D02*
Y286842D01*
X348336D01*
Y266764D02*
Y286842D01*
X308732Y276600D02*
X312668D01*
X310700Y274632D02*
Y278569D01*
X300464Y286836D02*
X320936D01*
Y266757D02*
Y286836D01*
X300464Y266757D02*
X320936D01*
X300464D02*
Y286836D01*
D87*
X424409Y317066D02*
Y358011D01*
X383465Y317066D02*
Y358011D01*
Y317066D02*
X424409D01*
X383465Y358011D02*
X424409D01*
D88*
X417100Y211900D02*
X420100D01*
X418600Y210400D02*
Y213400D01*
M02*
