G04 Layer_Color=2752767*
%FSLAX25Y25*%
%MOIN*%
G70*
G01*
G75*
%ADD89C,0.00200*%
%ADD90C,0.00267*%
D89*
X515700Y266800D02*
Y268400D01*
X517300D01*
Y266800D01*
X515700D01*
X505700D02*
Y268400D01*
X507300D01*
Y266800D01*
X505700D01*
X515700Y286800D02*
Y288400D01*
X517300D01*
Y286800D01*
X515700D01*
X505700D02*
Y288400D01*
X507300D01*
Y286800D01*
X505700D01*
X515700Y306800D02*
Y308400D01*
X517300D01*
Y306800D01*
X515700D01*
X505700D02*
Y308400D01*
X507300D01*
Y306800D01*
X505700D01*
X515700Y326800D02*
Y328400D01*
X517300D01*
Y326800D01*
X515700D01*
X505700D02*
Y328400D01*
X507300D01*
Y326800D01*
X505700D01*
X515700Y346800D02*
Y348400D01*
X517300D01*
Y346800D01*
X515700D01*
X505700D02*
Y348400D01*
X507300D01*
Y346800D01*
X505700D01*
X515700Y366800D02*
Y368400D01*
X517300D01*
Y366800D01*
X515700D01*
Y356800D02*
Y358400D01*
X517300D01*
Y356800D01*
X515700D01*
X505700D02*
Y358400D01*
X507300D01*
Y356800D01*
X505700D01*
Y366800D02*
Y368400D01*
X507300D01*
Y366800D01*
X505700D01*
Y336800D02*
Y338400D01*
X507300D01*
Y336800D01*
X505700D01*
X515700D02*
Y338400D01*
X517300D01*
Y336800D01*
X515700D01*
X505700Y316800D02*
Y318400D01*
X507300D01*
Y316800D01*
X505700D01*
X515700D02*
Y318400D01*
X517300D01*
Y316800D01*
X515700D01*
X505700Y296800D02*
Y298400D01*
X507300D01*
Y296800D01*
X505700D01*
X515700D02*
Y298400D01*
X517300D01*
Y296800D01*
X515700D01*
X505700Y276800D02*
Y278400D01*
X507300D01*
Y276800D01*
X505700D01*
X515700D02*
Y278400D01*
X517300D01*
Y276800D01*
X515700D01*
X505700Y256800D02*
Y258400D01*
X507300D01*
Y256800D01*
X505700D01*
X515700D02*
Y258400D01*
X517300D01*
Y256800D01*
X515700D01*
X392507Y378137D02*
Y379737D01*
X394107D01*
Y378137D01*
X392507D01*
X412507Y378137D02*
Y379737D01*
X414107D01*
Y378137D01*
X412507D01*
X432507Y378137D02*
Y379737D01*
X434107D01*
Y378137D01*
X432507D01*
X442507D02*
Y379737D01*
X444107D01*
Y378137D01*
X442507D01*
X452507D02*
Y379737D01*
X454107D01*
Y378137D01*
X452507D01*
X422507D02*
Y379737D01*
X424107D01*
Y378137D01*
X422507D01*
X402507D02*
Y379737D01*
X404107D01*
Y378137D01*
X402507D01*
X382507D02*
Y379737D01*
X384107D01*
Y378137D01*
X382507D01*
X513100Y232700D02*
Y234300D01*
X514700D01*
Y232700D01*
X513100D01*
X523100D02*
Y234300D01*
X524700D01*
Y232700D01*
X523100D01*
X533100D02*
Y234300D01*
X534700D01*
Y232700D01*
X533100D01*
X503100D02*
Y234300D01*
X504700D01*
Y232700D01*
X503100D01*
X513100Y221500D02*
Y223100D01*
X514700D01*
Y221500D01*
X513100D01*
X523100D02*
Y223100D01*
X524700D01*
Y221500D01*
X523100D01*
X533100D02*
Y223100D01*
X534700D01*
Y221500D01*
X533100D01*
X503100D02*
Y223100D01*
X504700D01*
Y221500D01*
X503100D01*
X513100Y210500D02*
Y212100D01*
X514700D01*
Y210500D01*
X513100D01*
X523100D02*
Y212100D01*
X524700D01*
Y210500D01*
X523100D01*
X533100D02*
Y212100D01*
X534700D01*
Y210500D01*
X533100D01*
X503100D02*
Y212100D01*
X504700D01*
Y210500D01*
X503100D01*
X319800Y229856D02*
X319000Y231456D01*
X320600D01*
X319800Y229856D01*
Y207100D02*
X319000Y208700D01*
X320600D01*
X319800Y207100D01*
X321768Y235486D02*
X322168Y235886D01*
X322568D01*
X322168Y236286D01*
X322568Y236686D01*
X322168D01*
X321768Y237086D01*
X321369Y236686D01*
X320969D01*
X321369Y236286D01*
X320969Y235886D01*
X321369D01*
X321768Y235486D01*
Y201470D02*
X322168Y201870D01*
X322568D01*
X322168Y202270D01*
X322568Y202670D01*
X322168D01*
X321768Y203070D01*
X321369Y202670D01*
X320969D01*
X321369Y202270D01*
X320969Y201870D01*
X321369D01*
X321768Y201470D01*
X304512Y235486D02*
X304912Y236286D01*
X304512Y237086D01*
X305312Y236686D01*
X306112Y237086D01*
X305712Y236286D01*
X306112Y235486D01*
X305312Y235886D01*
X304512Y235486D01*
Y201470D02*
X304912Y202270D01*
X304512Y203070D01*
X305312Y202670D01*
X306112Y203070D01*
X305712Y202270D01*
X306112Y201470D01*
X305312Y201870D01*
X304512Y201470D01*
X445100Y180400D02*
Y182000D01*
X446700D01*
Y180400D01*
X445100D01*
X435100D02*
Y182000D01*
X436700D01*
Y180400D01*
X435100D01*
X425100D02*
Y182000D01*
X426700D01*
Y180400D01*
X425100D01*
X455100D02*
Y182000D01*
X456700D01*
Y180400D01*
X455100D01*
X403000Y180400D02*
Y182000D01*
X404600D01*
Y180400D01*
X403000D01*
X393000D02*
Y182000D01*
X394600D01*
Y180400D01*
X393000D01*
X383000D02*
Y182000D01*
X384600D01*
Y180400D01*
X383000D01*
X342300Y281200D02*
Y282800D01*
X343900D01*
Y281200D01*
X342300D01*
X332300D02*
Y282800D01*
X333900D01*
Y281200D01*
X332300D01*
Y271200D02*
Y272800D01*
X333900D01*
Y271200D01*
X332300D01*
X342300D02*
Y272800D01*
X343900D01*
Y271200D01*
X342300D01*
X304900Y270800D02*
Y272400D01*
X306500D01*
Y270800D01*
X304900D01*
X314900D02*
Y272400D01*
X316500D01*
Y270800D01*
X314900D01*
Y280800D02*
Y282400D01*
X316500D01*
Y280800D01*
X314900D01*
X304900D02*
Y282400D01*
X306500D01*
Y280800D01*
X304900D01*
X447600Y370500D02*
Y370100D01*
X448400D01*
Y370500D01*
X448800D01*
Y371300D01*
X448400D01*
Y371700D01*
X447600D01*
Y371300D01*
X447200D01*
Y370500D01*
X447600D01*
X452800Y370600D02*
Y370200D01*
X453600D01*
Y370600D01*
X454000D01*
Y371400D01*
X453600D01*
Y371800D01*
X452800D01*
Y371400D01*
X452400D01*
Y370600D01*
X452800D01*
X406490Y326090D02*
Y325690D01*
X407290D01*
Y326090D01*
X407690D01*
Y326890D01*
X407290D01*
Y327290D01*
X406490D01*
Y326890D01*
X406090D01*
Y326090D01*
X406490D01*
X388900Y309047D02*
Y308646D01*
X389700D01*
Y309047D01*
X390100D01*
Y309846D01*
X389700D01*
Y310246D01*
X388900D01*
Y309846D01*
X388500D01*
Y309047D01*
X388900D01*
X434600Y199900D02*
X435000D01*
X435400Y200300D01*
X435800Y199900D01*
X436200D01*
Y200300D01*
X435800Y200700D01*
X436200Y201100D01*
Y201500D01*
X435800D01*
X435400Y201100D01*
X435000Y201500D01*
X434600D01*
Y201100D01*
X435000Y200700D01*
X434600Y200300D01*
Y199900D01*
X404513Y201287D02*
X404913D01*
X405313Y201687D01*
X405713Y201287D01*
X406113D01*
Y201687D01*
X405713Y202087D01*
X406113Y202487D01*
Y202887D01*
X405713D01*
X405313Y202487D01*
X404913Y202887D01*
X404513D01*
Y202487D01*
X404913Y202087D01*
X404513Y201687D01*
Y201287D01*
X315300Y232700D02*
Y232300D01*
X316100D01*
Y232700D01*
X316500D01*
Y233500D01*
X316100D01*
Y233900D01*
X315300D01*
Y233500D01*
X314900D01*
Y232700D01*
X315300D01*
X315600Y205000D02*
Y204600D01*
X316400D01*
Y205000D01*
X316800D01*
Y205800D01*
X316400D01*
Y206200D01*
X315600D01*
Y205800D01*
X315200D01*
Y205000D01*
X315600D01*
X332100Y232600D02*
Y232200D01*
X332900D01*
Y232600D01*
X333300D01*
Y233400D01*
X332900D01*
Y233800D01*
X332100D01*
Y233400D01*
X331700D01*
Y232600D01*
X332100D01*
X333600Y205600D02*
Y205200D01*
X334400D01*
Y205600D01*
X334800D01*
Y206400D01*
X334400D01*
Y206800D01*
X333600D01*
Y206400D01*
X333200D01*
Y205600D01*
X333600D01*
Y199600D02*
Y199200D01*
X334400D01*
Y199600D01*
X334800D01*
Y200400D01*
X334400D01*
Y200800D01*
X333600D01*
Y200400D01*
X333200D01*
Y199600D01*
X333600D01*
X339600Y205600D02*
Y205200D01*
X340400D01*
Y205600D01*
X340800D01*
Y206400D01*
X340400D01*
Y206800D01*
X339600D01*
Y206400D01*
X339200D01*
Y205600D01*
X339600D01*
Y199600D02*
Y199200D01*
X340400D01*
Y199600D01*
X340800D01*
Y200400D01*
X340400D01*
Y200800D01*
X339600D01*
Y200400D01*
X339200D01*
Y199600D01*
X339600D01*
X345600Y205600D02*
Y205200D01*
X346400D01*
Y205600D01*
X346800D01*
Y206400D01*
X346400D01*
Y206800D01*
X345600D01*
Y206400D01*
X345200D01*
Y205600D01*
X345600D01*
Y199600D02*
Y199200D01*
X346400D01*
Y199600D01*
X346800D01*
Y200400D01*
X346400D01*
Y200800D01*
X345600D01*
Y200400D01*
X345200D01*
Y199600D01*
X345600D01*
X329600Y237600D02*
Y237200D01*
X330400D01*
Y237600D01*
X330800D01*
Y238400D01*
X330400D01*
Y238800D01*
X329600D01*
Y238400D01*
X329200D01*
Y237600D01*
X329600D01*
X335600D02*
Y237200D01*
X336400D01*
Y237600D01*
X336800D01*
Y238400D01*
X336400D01*
Y238800D01*
X335600D01*
Y238400D01*
X335200D01*
Y237600D01*
X335600D01*
X321600Y243600D02*
Y243200D01*
X322400D01*
Y243600D01*
X322800D01*
Y244400D01*
X322400D01*
Y244800D01*
X321600D01*
Y244400D01*
X321200D01*
Y243600D01*
X321600D01*
X371600Y229600D02*
Y229200D01*
X372400D01*
Y229600D01*
X372800D01*
Y230400D01*
X372400D01*
Y230800D01*
X371600D01*
Y230400D01*
X371200D01*
Y229600D01*
X371600D01*
Y223600D02*
Y223200D01*
X372400D01*
Y223600D01*
X372800D01*
Y224400D01*
X372400D01*
Y224800D01*
X371600D01*
Y224400D01*
X371200D01*
Y223600D01*
X371600D01*
X379600Y229600D02*
Y229200D01*
X380400D01*
Y229600D01*
X380800D01*
Y230400D01*
X380400D01*
Y230800D01*
X379600D01*
Y230400D01*
X379200D01*
Y229600D01*
X379600D01*
Y223600D02*
Y223200D01*
X380400D01*
Y223600D01*
X380800D01*
Y224400D01*
X380400D01*
Y224800D01*
X379600D01*
Y224400D01*
X379200D01*
Y223600D01*
X379600D01*
X387600Y229600D02*
Y229200D01*
X388400D01*
Y229600D01*
X388800D01*
Y230400D01*
X388400D01*
Y230800D01*
X387600D01*
Y230400D01*
X387200D01*
Y229600D01*
X387600D01*
Y223600D02*
Y223200D01*
X388400D01*
Y223600D01*
X388800D01*
Y224400D01*
X388400D01*
Y224800D01*
X387600D01*
Y224400D01*
X387200D01*
Y223600D01*
X387600D01*
X395600Y229600D02*
Y229200D01*
X396400D01*
Y229600D01*
X396800D01*
Y230400D01*
X396400D01*
Y230800D01*
X395600D01*
Y230400D01*
X395200D01*
Y229600D01*
X395600D01*
Y223600D02*
Y223200D01*
X396400D01*
Y223600D01*
X396800D01*
Y224400D01*
X396400D01*
Y224800D01*
X395600D01*
Y224400D01*
X395200D01*
Y223600D01*
X395600D01*
X437600Y229600D02*
Y229200D01*
X438400D01*
Y229600D01*
X438800D01*
Y230400D01*
X438400D01*
Y230800D01*
X437600D01*
Y230400D01*
X437200D01*
Y229600D01*
X437600D01*
Y223600D02*
Y223200D01*
X438400D01*
Y223600D01*
X438800D01*
Y224400D01*
X438400D01*
Y224800D01*
X437600D01*
Y224400D01*
X437200D01*
Y223600D01*
X437600D01*
X445600Y229600D02*
Y229200D01*
X446400D01*
Y229600D01*
X446800D01*
Y230400D01*
X446400D01*
Y230800D01*
X445600D01*
Y230400D01*
X445200D01*
Y229600D01*
X445600D01*
Y223600D02*
Y223200D01*
X446400D01*
Y223600D01*
X446800D01*
Y224400D01*
X446400D01*
Y224800D01*
X445600D01*
Y224400D01*
X445200D01*
Y223600D01*
X445600D01*
X453600Y229600D02*
Y229200D01*
X454400D01*
Y229600D01*
X454800D01*
Y230400D01*
X454400D01*
Y230800D01*
X453600D01*
Y230400D01*
X453200D01*
Y229600D01*
X453600D01*
Y223600D02*
Y223200D01*
X454400D01*
Y223600D01*
X454800D01*
Y224400D01*
X454400D01*
Y224800D01*
X453600D01*
Y224400D01*
X453200D01*
Y223600D01*
X453600D01*
X461600Y229600D02*
Y229200D01*
X462400D01*
Y229600D01*
X462800D01*
Y230400D01*
X462400D01*
Y230800D01*
X461600D01*
Y230400D01*
X461200D01*
Y229600D01*
X461600D01*
Y223600D02*
Y223200D01*
X462400D01*
Y223600D01*
X462800D01*
Y224400D01*
X462400D01*
Y224800D01*
X461600D01*
Y224400D01*
X461200D01*
Y223600D01*
X461600D01*
X437140Y300648D02*
Y300248D01*
X437940D01*
Y300648D01*
X438340D01*
Y301448D01*
X437940D01*
Y301848D01*
X437140D01*
Y301448D01*
X436740D01*
Y300648D01*
X437140D01*
X400500Y329400D02*
Y329000D01*
X401300D01*
Y329400D01*
X401700D01*
Y330200D01*
X401300D01*
Y330600D01*
X400500D01*
Y330200D01*
X400100D01*
Y329400D01*
X400500D01*
X400300Y348200D02*
Y347800D01*
X401100D01*
Y348200D01*
X401500D01*
Y349000D01*
X401100D01*
Y349400D01*
X400300D01*
Y349000D01*
X399900D01*
Y348200D01*
X400300D01*
X437500Y282300D02*
Y281900D01*
X438300D01*
Y282300D01*
X438700D01*
Y283100D01*
X438300D01*
Y283500D01*
X437500D01*
Y283100D01*
X437100D01*
Y282300D01*
X437500D01*
X371900Y341300D02*
Y340900D01*
X372700D01*
Y341300D01*
X373100D01*
Y342100D01*
X372700D01*
Y342500D01*
X371900D01*
Y342100D01*
X371500D01*
Y341300D01*
X371900D01*
X403500Y344500D02*
Y344100D01*
X404300D01*
Y344500D01*
X404700D01*
Y345300D01*
X404300D01*
Y345700D01*
X403500D01*
Y345300D01*
X403100D01*
Y344500D01*
X403500D01*
X406800Y347800D02*
Y347400D01*
X407600D01*
Y347800D01*
X408000D01*
Y348600D01*
X407600D01*
Y349000D01*
X406800D01*
Y348600D01*
X406400D01*
Y347800D01*
X406800D01*
X364800Y358100D02*
Y357700D01*
X365600D01*
Y358100D01*
X366000D01*
Y358900D01*
X365600D01*
Y359300D01*
X364800D01*
Y358900D01*
X364400D01*
Y358100D01*
X364800D01*
X413300Y338200D02*
Y337800D01*
X414100D01*
Y338200D01*
X414500D01*
Y339000D01*
X414100D01*
Y339400D01*
X413300D01*
Y339000D01*
X412900D01*
Y338200D01*
X413300D01*
X364300Y354200D02*
Y353800D01*
X365100D01*
Y354200D01*
X365500D01*
Y355000D01*
X365100D01*
Y355400D01*
X364300D01*
Y355000D01*
X363900D01*
Y354200D01*
X364300D01*
X364500Y350400D02*
Y350000D01*
X365300D01*
Y350400D01*
X365700D01*
Y351200D01*
X365300D01*
Y351600D01*
X364500D01*
Y351200D01*
X364100D01*
Y350400D01*
X364500D01*
Y344500D02*
Y344100D01*
X365300D01*
Y344500D01*
X365700D01*
Y345300D01*
X365300D01*
Y345700D01*
X364500D01*
Y345300D01*
X364100D01*
Y344500D01*
X364500D01*
X367200Y341400D02*
Y341000D01*
X368000D01*
Y341400D01*
X368400D01*
Y342200D01*
X368000D01*
Y342600D01*
X367200D01*
Y342200D01*
X366800D01*
Y341400D01*
X367200D01*
X414600Y333000D02*
Y332600D01*
X415400D01*
Y333000D01*
X415800D01*
Y333800D01*
X415400D01*
Y334200D01*
X414600D01*
Y333800D01*
X414200D01*
Y333000D01*
X414600D01*
X516100Y202700D02*
Y202300D01*
X516900D01*
Y202700D01*
X517300D01*
Y203500D01*
X516900D01*
Y203900D01*
X516100D01*
Y203500D01*
X515700D01*
Y202700D01*
X516100D01*
X458400Y205300D02*
Y204900D01*
X459200D01*
Y205300D01*
X459600D01*
Y206100D01*
X459200D01*
Y206500D01*
X458400D01*
Y206100D01*
X458000D01*
Y205300D01*
X458400D01*
X471800Y261900D02*
X472600Y262700D01*
X473400Y261900D01*
X472600Y261100D01*
X471800Y261900D01*
X432300Y348600D02*
Y348200D01*
X433100D01*
Y348600D01*
X433500D01*
Y349400D01*
X433100D01*
Y349800D01*
X432300D01*
Y349400D01*
X431900D01*
Y348600D01*
X432300D01*
X364600Y379900D02*
Y379500D01*
X365400D01*
Y379900D01*
X365800D01*
Y380700D01*
X365400D01*
Y381100D01*
X364600D01*
Y380700D01*
X364200D01*
Y379900D01*
X364600D01*
X376700Y319600D02*
Y319200D01*
X377500D01*
Y319600D01*
X377900D01*
Y320400D01*
X377500D01*
Y320800D01*
X376700D01*
Y320400D01*
X376300D01*
Y319600D01*
X376700D01*
X359600Y283600D02*
Y283200D01*
X360400D01*
Y283600D01*
X360800D01*
Y284400D01*
X360400D01*
Y284800D01*
X359600D01*
Y284400D01*
X359200D01*
Y283600D01*
X359600D01*
X367600D02*
Y283200D01*
X368400D01*
Y283600D01*
X368800D01*
Y284400D01*
X368400D01*
Y284800D01*
X367600D01*
Y284400D01*
X367200D01*
Y283600D01*
X367600D01*
X359600Y277600D02*
Y277200D01*
X360400D01*
Y277600D01*
X360800D01*
Y278400D01*
X360400D01*
Y278800D01*
X359600D01*
Y278400D01*
X359200D01*
Y277600D01*
X359600D01*
X367600D02*
Y277200D01*
X368400D01*
Y277600D01*
X368800D01*
Y278400D01*
X368400D01*
Y278800D01*
X367600D01*
Y278400D01*
X367200D01*
Y277600D01*
X367600D01*
X359600Y271600D02*
Y271200D01*
X360400D01*
Y271600D01*
X360800D01*
Y272400D01*
X360400D01*
Y272800D01*
X359600D01*
Y272400D01*
X359200D01*
Y271600D01*
X359600D01*
X367600D02*
Y271200D01*
X368400D01*
Y271600D01*
X368800D01*
Y272400D01*
X368400D01*
Y272800D01*
X367600D01*
Y272400D01*
X367200D01*
Y271600D01*
X367600D01*
X359600Y265600D02*
Y265200D01*
X360400D01*
Y265600D01*
X360800D01*
Y266400D01*
X360400D01*
Y266800D01*
X359600D01*
Y266400D01*
X359200D01*
Y265600D01*
X359600D01*
X367600D02*
Y265200D01*
X368400D01*
Y265600D01*
X368800D01*
Y266400D01*
X368400D01*
Y266800D01*
X367600D01*
Y266400D01*
X367200D01*
Y265600D01*
X367600D01*
X359600Y325600D02*
Y325200D01*
X360400D01*
Y325600D01*
X360800D01*
Y326400D01*
X360400D01*
Y326800D01*
X359600D01*
Y326400D01*
X359200D01*
Y325600D01*
X359600D01*
X365600D02*
Y325200D01*
X366400D01*
Y325600D01*
X366800D01*
Y326400D01*
X366400D01*
Y326800D01*
X365600D01*
Y326400D01*
X365200D01*
Y325600D01*
X365600D01*
X359600Y317600D02*
Y317200D01*
X360400D01*
Y317600D01*
X360800D01*
Y318400D01*
X360400D01*
Y318800D01*
X359600D01*
Y318400D01*
X359200D01*
Y317600D01*
X359600D01*
X365600D02*
Y317200D01*
X366400D01*
Y317600D01*
X366800D01*
Y318400D01*
X366400D01*
Y318800D01*
X365600D01*
Y318400D01*
X365200D01*
Y317600D01*
X365600D01*
X376700Y308700D02*
Y308300D01*
X377500D01*
Y308700D01*
X377900D01*
Y309500D01*
X377500D01*
Y309900D01*
X376700D01*
Y309500D01*
X376300D01*
Y308700D01*
X376700D01*
X340200Y183800D02*
Y183400D01*
X341000D01*
Y183800D01*
X341400D01*
Y184600D01*
X341000D01*
Y185000D01*
X340200D01*
Y184600D01*
X339800D01*
Y183800D01*
X340200D01*
X373100Y189100D02*
Y188700D01*
X373900D01*
Y189100D01*
X374300D01*
Y189900D01*
X373900D01*
Y190300D01*
X373100D01*
Y189900D01*
X372700D01*
Y189100D01*
X373100D01*
X323636Y306332D02*
Y305932D01*
X324436D01*
Y306332D01*
X324836D01*
Y307132D01*
X324436D01*
Y307532D01*
X323636D01*
Y307132D01*
X323236D01*
Y306332D01*
X323636D01*
Y325676D02*
Y325276D01*
X324436D01*
Y325676D01*
X324836D01*
Y326476D01*
X324436D01*
Y326876D01*
X323636D01*
Y326476D01*
X323236D01*
Y325676D01*
X323636D01*
Y345021D02*
Y344620D01*
X324436D01*
Y345021D01*
X324836D01*
Y345820D01*
X324436D01*
Y346220D01*
X323636D01*
Y345820D01*
X323236D01*
Y345021D01*
X323636D01*
Y364365D02*
Y363965D01*
X324436D01*
Y364365D01*
X324836D01*
Y365165D01*
X324436D01*
Y365565D01*
X323636D01*
Y365165D01*
X323236D01*
Y364365D01*
X323636D01*
X334300Y382047D02*
Y381646D01*
X335100D01*
Y382047D01*
X335500D01*
Y382846D01*
X335100D01*
Y383246D01*
X334300D01*
Y382846D01*
X333900D01*
Y382047D01*
X334300D01*
X392947Y362600D02*
Y362200D01*
X393746D01*
Y362600D01*
X394146D01*
Y363400D01*
X393746D01*
Y363800D01*
X392947D01*
Y363400D01*
X392547D01*
Y362600D01*
X392947D01*
X385900Y369700D02*
Y369300D01*
X386700D01*
Y369700D01*
X387100D01*
Y370500D01*
X386700D01*
Y370900D01*
X385900D01*
Y370500D01*
X385500D01*
Y369700D01*
X385900D01*
X376500Y326493D02*
Y326093D01*
X377300D01*
Y326493D01*
X377700D01*
Y327293D01*
X377300D01*
Y327693D01*
X376500D01*
Y327293D01*
X376100D01*
Y326493D01*
X376500D01*
X414753Y310800D02*
Y310400D01*
X415554D01*
Y310800D01*
X415953D01*
Y311600D01*
X415554D01*
Y312000D01*
X414753D01*
Y311600D01*
X414354D01*
Y310800D01*
X414753D01*
X436600Y316100D02*
Y315700D01*
X437400D01*
Y316100D01*
X437800D01*
Y316900D01*
X437400D01*
Y317300D01*
X436600D01*
Y316900D01*
X436200D01*
Y316100D01*
X436600D01*
X432200Y341600D02*
Y341200D01*
X433000D01*
Y341600D01*
X433400D01*
Y342400D01*
X433000D01*
Y342800D01*
X432200D01*
Y342400D01*
X431800D01*
Y341600D01*
X432200D01*
X464847Y305100D02*
Y304700D01*
X465647D01*
Y305100D01*
X466046D01*
Y305900D01*
X465647D01*
Y306300D01*
X464847D01*
Y305900D01*
X464446D01*
Y305100D01*
X464847D01*
X464693Y317900D02*
Y317500D01*
X465493D01*
Y317900D01*
X465893D01*
Y318700D01*
X465493D01*
Y319100D01*
X464693D01*
Y318700D01*
X464293D01*
Y317900D01*
X464693D01*
X464646Y332000D02*
Y331600D01*
X465447D01*
Y332000D01*
X465846D01*
Y332800D01*
X465447D01*
Y333200D01*
X464646D01*
Y332800D01*
X464247D01*
Y332000D01*
X464646D01*
Y343100D02*
Y342700D01*
X465447D01*
Y343100D01*
X465846D01*
Y343900D01*
X465447D01*
Y344300D01*
X464646D01*
Y343900D01*
X464247D01*
Y343100D01*
X464646D01*
X304700Y225800D02*
Y225400D01*
X305500D01*
Y225800D01*
X305900D01*
Y226600D01*
X305500D01*
Y227000D01*
X304700D01*
Y226600D01*
X304300D01*
Y225800D01*
X304700D01*
X304600Y212800D02*
Y212400D01*
X305400D01*
Y212800D01*
X305800D01*
Y213600D01*
X305400D01*
Y214000D01*
X304600D01*
Y213600D01*
X304200D01*
Y212800D01*
X304600D01*
D90*
X305918Y182087D02*
X305365Y182847D01*
X304471Y182557D01*
Y181616D01*
X305365Y181326D01*
X305918Y182087D01*
X532296D02*
X531743Y182847D01*
X530849Y182557D01*
Y181616D01*
X531743Y181326D01*
X532296Y182087D01*
Y383858D02*
X531743Y384619D01*
X530849Y384329D01*
Y383388D01*
X531743Y383097D01*
X532296Y383858D01*
X305918D02*
X305365Y384619D01*
X304471Y384329D01*
Y383388D01*
X305365Y383097D01*
X305918Y383858D01*
X364973Y206693D02*
X364420Y207454D01*
X363526Y207163D01*
Y206223D01*
X364420Y205932D01*
X364973Y206693D01*
X473241D02*
X472688Y207454D01*
X471794Y207163D01*
Y206223D01*
X472688Y205932D01*
X473241Y206693D01*
M02*
