G04 Layer_Color=16711935*
%FSLAX25Y25*%
%MOIN*%
G70*
G01*
G75*
%ADD77C,0.07099*%
%ADD78R,0.07099X0.07099*%
%ADD79C,0.14579*%
%ADD80R,0.07099X0.07099*%
%ADD81C,0.03398*%
%ADD82O,0.09068X0.04737*%
%ADD83O,0.07099X0.04737*%
%ADD84C,0.03200*%
%ADD85C,0.03800*%
%ADD86C,0.05800*%
D77*
X516500Y267600D02*
D03*
X506500D02*
D03*
X516500Y287600D02*
D03*
X506500D02*
D03*
X516500Y307600D02*
D03*
X506500D02*
D03*
X516500Y327600D02*
D03*
X506500D02*
D03*
X516500Y347600D02*
D03*
X506500D02*
D03*
X516500Y367600D02*
D03*
Y357600D02*
D03*
X506500D02*
D03*
Y337600D02*
D03*
X516500D02*
D03*
X506500Y317600D02*
D03*
X516500D02*
D03*
X506500Y297600D02*
D03*
X516500D02*
D03*
X506500Y277600D02*
D03*
X516500D02*
D03*
X506500Y257600D02*
D03*
X516500D02*
D03*
X393307Y378937D02*
D03*
X413307Y378937D02*
D03*
X433307Y378937D02*
D03*
X443307D02*
D03*
X423307D02*
D03*
X403307D02*
D03*
X383307D02*
D03*
X513900Y233500D02*
D03*
X523900D02*
D03*
X503900D02*
D03*
X513900Y222300D02*
D03*
X523900D02*
D03*
X503900D02*
D03*
X513900Y211300D02*
D03*
X523900D02*
D03*
X503900D02*
D03*
X445900Y181200D02*
D03*
X435900D02*
D03*
X455900D02*
D03*
X393800Y181200D02*
D03*
X383800D02*
D03*
X333100Y282000D02*
D03*
Y272000D02*
D03*
X343100D02*
D03*
X315700Y271600D02*
D03*
Y281600D02*
D03*
X305700D02*
D03*
D78*
X506500Y367600D02*
D03*
D79*
X305118Y182087D02*
D03*
X531496D02*
D03*
Y383858D02*
D03*
X305118D02*
D03*
X364173Y206693D02*
D03*
X472441D02*
D03*
D80*
X453307Y378937D02*
D03*
X533900Y233500D02*
D03*
Y222300D02*
D03*
Y211300D02*
D03*
X425900Y181200D02*
D03*
X403800Y181200D02*
D03*
X343100Y282000D02*
D03*
X305700Y271600D02*
D03*
D81*
X319800Y230656D02*
D03*
Y207900D02*
D03*
D82*
X321768Y236286D02*
D03*
Y202270D02*
D03*
D83*
X305312Y236286D02*
D03*
Y202270D02*
D03*
D84*
X448000Y370900D02*
D03*
X453200Y371000D02*
D03*
X406890Y326490D02*
D03*
X389300Y309447D02*
D03*
X315700Y233100D02*
D03*
X316000Y205400D02*
D03*
X332500Y233000D02*
D03*
X334000Y206000D02*
D03*
Y200000D02*
D03*
X340000Y206000D02*
D03*
Y200000D02*
D03*
X346000Y206000D02*
D03*
Y200000D02*
D03*
X330000Y238000D02*
D03*
X336000D02*
D03*
X322000Y244000D02*
D03*
X372000Y230000D02*
D03*
Y224000D02*
D03*
X380000Y230000D02*
D03*
Y224000D02*
D03*
X388000Y230000D02*
D03*
Y224000D02*
D03*
X396000Y230000D02*
D03*
Y224000D02*
D03*
X438000Y230000D02*
D03*
Y224000D02*
D03*
X446000Y230000D02*
D03*
Y224000D02*
D03*
X454000Y230000D02*
D03*
Y224000D02*
D03*
X462000Y230000D02*
D03*
Y224000D02*
D03*
X437540Y301048D02*
D03*
X400900Y329800D02*
D03*
X400700Y348600D02*
D03*
X437900Y282700D02*
D03*
X372300Y341700D02*
D03*
X403900Y344900D02*
D03*
X407200Y348200D02*
D03*
X365200Y358500D02*
D03*
X413700Y338600D02*
D03*
X364700Y354600D02*
D03*
X364900Y350800D02*
D03*
Y344900D02*
D03*
X367600Y341800D02*
D03*
X415000Y333400D02*
D03*
X516500Y203100D02*
D03*
X458800Y205700D02*
D03*
X432700Y349000D02*
D03*
X365000Y380300D02*
D03*
X377100Y320000D02*
D03*
X360000Y284000D02*
D03*
X368000D02*
D03*
X360000Y278000D02*
D03*
X368000D02*
D03*
X360000Y272000D02*
D03*
X368000D02*
D03*
X360000Y266000D02*
D03*
X368000D02*
D03*
X360000Y326000D02*
D03*
X366000D02*
D03*
X360000Y318000D02*
D03*
X366000D02*
D03*
X377100Y309100D02*
D03*
X340600Y184200D02*
D03*
X373500Y189500D02*
D03*
X324036Y306732D02*
D03*
Y326076D02*
D03*
Y345421D02*
D03*
Y364765D02*
D03*
X334700Y382447D02*
D03*
X393347Y363000D02*
D03*
X386300Y370100D02*
D03*
X376900Y326893D02*
D03*
X415154Y311200D02*
D03*
X437000Y316500D02*
D03*
X432600Y342000D02*
D03*
X465246Y305500D02*
D03*
X465093Y318300D02*
D03*
X465047Y332400D02*
D03*
Y343500D02*
D03*
X305100Y226200D02*
D03*
X305000Y213200D02*
D03*
D85*
X435400Y200700D02*
D03*
X405313Y202087D02*
D03*
D86*
X472600Y261900D02*
D03*
M02*
