M48
;Layer_Color=9474304
;FILE_FORMAT=2:5
INCH,LZ
;TYPE=PLATED
T1F00S00C0.01200
T2F00S00C0.01500
T4F00S00C0.02500
T5F00S00C0.02598
T6F00S00C0.03543
T7F00S00C0.08661
%
T01
X05165Y02031
X04588Y02057
X0462Y0224
Y023
X0454
Y0224
X0446
Y023
X0438
Y0224
X0396
Y023
X0388
Y0224
X038
Y023
X0372
Y0224
X03735Y01895
X0346Y02
X034
X0334
Y0206
X034
X0346
X03406Y01842
X0316Y02054
X03157Y02331
X03325Y0233
X033Y0238
X0336
X0322Y0244
X036Y0266
Y0272
Y0278
Y0284
X0368
Y0278
Y0272
Y0266
X03771Y03091
X03893Y0309447
X0415154Y03112
X043754Y0301048
X04379Y02827
X0465246Y03055
X0324036Y0306732
X03051Y02262
X0305Y02132
X0324036Y0326076
Y0345421
Y0364765
X03347Y0382447
X0365Y03803
X03652Y03585
X03647Y03546
X03649Y03508
Y03449
X03676Y03418
X03723Y03417
X03769Y0326893
X03771Y032
X0366Y0318
X036
Y0326
X0366
X04009Y03298
X040689Y032649
X0415Y03334
X04137Y03386
X04039Y03449
X04072Y03482
X04007Y03486
X0393347Y0363
X03863Y03701
X0448Y03709
X04532Y0371
X0465047Y03435
Y03324
X0465093Y03183
X0437Y03165
X04326Y0342
X04327Y0349
T02
X0405313Y0202087
X04354Y02007
T04
X04726Y02619
T05
X03198Y02079
Y0230656
T06
X05039Y02113
X05139
X05239
X05339
Y02223
X05239
X05139
X05039
Y02335
X05139
X05239
X05339
X05165Y02576
Y02676
X05065
Y02776
Y02876
X05165
Y02976
Y03076
X05065
Y02976
X05165Y02776
X05065Y02576
X04559Y01812
X04459
X04359
X04259
X04038Y01812
X03938
X03838
X03431Y0272
Y0282
X03331
Y0272
X03157Y02716
Y02816
X03057
Y02716
X0383307Y0378937
X0393307
X0403307
X0413307Y0378937
X0423307Y0378937
X0433307
X0443307
X0453307
X05065Y03676
X05165
Y03576
Y03476
X05065
Y03576
Y03376
Y03276
X05165
Y03376
Y03176
X05065
T07
X0472441Y0206693
X0531496Y0182087
X0364173Y0206693
X0305118Y0182087
Y0383858
X0531496
M30
