G04 Layer_Color=128*
%FSLAX25Y25*%
%MOIN*%
G70*
G01*
G75*
%ADD89C,0.00200*%
D89*
X514728Y267600D02*
X518272D01*
X516500Y265828D02*
Y269372D01*
X504728Y267600D02*
X508272D01*
X506500Y265828D02*
Y269372D01*
X514728Y287600D02*
X518272D01*
X516500Y285828D02*
Y289372D01*
X504728Y287600D02*
X508272D01*
X506500Y285828D02*
Y289372D01*
X514728Y307600D02*
X518272D01*
X516500Y305828D02*
Y309372D01*
X504728Y307600D02*
X508272D01*
X506500Y305828D02*
Y309372D01*
X514728Y327600D02*
X518272D01*
X516500Y325828D02*
Y329372D01*
X504728Y327600D02*
X508272D01*
X506500Y325828D02*
Y329372D01*
X514728Y347600D02*
X518272D01*
X516500Y345828D02*
Y349372D01*
X504728Y347600D02*
X508272D01*
X506500Y345828D02*
Y349372D01*
X514728Y367600D02*
X518272D01*
X516500Y365828D02*
Y369372D01*
X514728Y357600D02*
X518272D01*
X516500Y355828D02*
Y359372D01*
X504728Y357600D02*
X508272D01*
X506500Y355828D02*
Y359372D01*
X504728Y367600D02*
X508272D01*
X506500Y365828D02*
Y369372D01*
X504728Y337600D02*
X508272D01*
X506500Y335828D02*
Y339372D01*
X514728Y337600D02*
X518272D01*
X516500Y335828D02*
Y339372D01*
X504728Y317600D02*
X508272D01*
X506500Y315828D02*
Y319372D01*
X514728Y317600D02*
X518272D01*
X516500Y315828D02*
Y319372D01*
X504728Y297600D02*
X508272D01*
X506500Y295828D02*
Y299372D01*
X514728Y297600D02*
X518272D01*
X516500Y295828D02*
Y299372D01*
X504728Y277600D02*
X508272D01*
X506500Y275828D02*
Y279372D01*
X514728Y277600D02*
X518272D01*
X516500Y275828D02*
Y279372D01*
X504728Y257600D02*
X508272D01*
X506500Y255828D02*
Y259372D01*
X514728Y257600D02*
X518272D01*
X516500Y255828D02*
Y259372D01*
X300787Y182087D02*
X309449D01*
X305118Y177756D02*
Y186417D01*
X527165Y182087D02*
X535827D01*
X531496Y177756D02*
Y186417D01*
X527165Y383858D02*
X535827D01*
X531496Y379528D02*
Y388189D01*
X300787Y383858D02*
X309449D01*
X305118Y379528D02*
Y388189D01*
X391535Y378937D02*
X395079D01*
X393307Y377165D02*
Y380709D01*
X411535Y378937D02*
X415079D01*
X413307Y377165D02*
Y380709D01*
X431535Y378937D02*
X435079D01*
X433307Y377165D02*
Y380709D01*
X441535Y378937D02*
X445079D01*
X443307Y377165D02*
Y380709D01*
X451535Y378937D02*
X455079D01*
X453307Y377165D02*
Y380709D01*
X421535Y378937D02*
X425079D01*
X423307Y377165D02*
Y380709D01*
X401535Y378937D02*
X405079D01*
X403307Y377165D02*
Y380709D01*
X381535Y378937D02*
X385079D01*
X383307Y377165D02*
Y380709D01*
X512128Y233500D02*
X515672D01*
X513900Y231728D02*
Y235272D01*
X522128Y233500D02*
X525672D01*
X523900Y231728D02*
Y235272D01*
X532128Y233500D02*
X535672D01*
X533900Y231728D02*
Y235272D01*
X502128Y233500D02*
X505672D01*
X503900Y231728D02*
Y235272D01*
X512128Y222300D02*
X515672D01*
X513900Y220528D02*
Y224072D01*
X522128Y222300D02*
X525672D01*
X523900Y220528D02*
Y224072D01*
X532128Y222300D02*
X535672D01*
X533900Y220528D02*
Y224072D01*
X502128Y222300D02*
X505672D01*
X503900Y220528D02*
Y224072D01*
X512128Y211300D02*
X515672D01*
X513900Y209528D02*
Y213072D01*
X522128Y211300D02*
X525672D01*
X523900Y209528D02*
Y213072D01*
X532128Y211300D02*
X535672D01*
X533900Y209528D02*
Y213072D01*
X502128Y211300D02*
X505672D01*
X503900Y209528D02*
Y213072D01*
X318501Y230656D02*
X321099D01*
X319800Y229357D02*
Y231955D01*
X318501Y207900D02*
X321099D01*
X319800Y206601D02*
Y209199D01*
X320587Y236286D02*
X322950D01*
X321768Y235105D02*
Y237467D01*
X320587Y202270D02*
X322950D01*
X321768Y201089D02*
Y203451D01*
X304131Y236286D02*
X306493D01*
X305312Y235105D02*
Y237467D01*
X304131Y202270D02*
X306493D01*
X305312Y201089D02*
Y203451D01*
X359842Y206693D02*
X368504D01*
X364173Y202362D02*
Y211024D01*
X468110Y206693D02*
X476772D01*
X472441Y202362D02*
Y211024D01*
X444128Y181200D02*
X447672D01*
X445900Y179428D02*
Y182972D01*
X434128Y181200D02*
X437672D01*
X435900Y179428D02*
Y182972D01*
X424128Y181200D02*
X427672D01*
X425900Y179428D02*
Y182972D01*
X454128Y181200D02*
X457672D01*
X455900Y179428D02*
Y182972D01*
X402028Y181200D02*
X405572D01*
X403800Y179428D02*
Y182972D01*
X392028Y181200D02*
X395572D01*
X393800Y179428D02*
Y182972D01*
X382028Y181200D02*
X385572D01*
X383800Y179428D02*
Y182972D01*
X341328Y282000D02*
X344872D01*
X343100Y280228D02*
Y283772D01*
X331328Y282000D02*
X334872D01*
X333100Y280228D02*
Y283772D01*
X331328Y272000D02*
X334872D01*
X333100Y270228D02*
Y273772D01*
X341328Y272000D02*
X344872D01*
X343100Y270228D02*
Y273772D01*
X303928Y271600D02*
X307472D01*
X305700Y269828D02*
Y273372D01*
X313928Y271600D02*
X317472D01*
X315700Y269828D02*
Y273372D01*
X313928Y281600D02*
X317472D01*
X315700Y279828D02*
Y283372D01*
X303928Y281600D02*
X307472D01*
X305700Y279828D02*
Y283372D01*
X447400Y370900D02*
X448600D01*
X448000Y370300D02*
Y371500D01*
X452600Y371000D02*
X453800D01*
X453200Y370400D02*
Y371600D01*
X406290Y326490D02*
X407490D01*
X406890Y325890D02*
Y327090D01*
X388700Y309447D02*
X389900D01*
X389300Y308846D02*
Y310047D01*
X434650Y200700D02*
X436150D01*
X435400Y199950D02*
Y201450D01*
X404563Y202087D02*
X406063D01*
X405313Y201337D02*
Y202837D01*
X315100Y233100D02*
X316300D01*
X315700Y232500D02*
Y233700D01*
X315400Y205400D02*
X316600D01*
X316000Y204800D02*
Y206000D01*
X331900Y233000D02*
X333100D01*
X332500Y232400D02*
Y233600D01*
X333400Y206000D02*
X334600D01*
X334000Y205400D02*
Y206600D01*
X333400Y200000D02*
X334600D01*
X334000Y199400D02*
Y200600D01*
X339400Y206000D02*
X340600D01*
X340000Y205400D02*
Y206600D01*
X339400Y200000D02*
X340600D01*
X340000Y199400D02*
Y200600D01*
X345400Y206000D02*
X346600D01*
X346000Y205400D02*
Y206600D01*
X345400Y200000D02*
X346600D01*
X346000Y199400D02*
Y200600D01*
X329400Y238000D02*
X330600D01*
X330000Y237400D02*
Y238600D01*
X335400Y238000D02*
X336600D01*
X336000Y237400D02*
Y238600D01*
X321400Y244000D02*
X322600D01*
X322000Y243400D02*
Y244600D01*
X371400Y230000D02*
X372600D01*
X372000Y229400D02*
Y230600D01*
X371400Y224000D02*
X372600D01*
X372000Y223400D02*
Y224600D01*
X379400Y230000D02*
X380600D01*
X380000Y229400D02*
Y230600D01*
X379400Y224000D02*
X380600D01*
X380000Y223400D02*
Y224600D01*
X387400Y230000D02*
X388600D01*
X388000Y229400D02*
Y230600D01*
X387400Y224000D02*
X388600D01*
X388000Y223400D02*
Y224600D01*
X395400Y230000D02*
X396600D01*
X396000Y229400D02*
Y230600D01*
X395400Y224000D02*
X396600D01*
X396000Y223400D02*
Y224600D01*
X437400Y230000D02*
X438600D01*
X438000Y229400D02*
Y230600D01*
X437400Y224000D02*
X438600D01*
X438000Y223400D02*
Y224600D01*
X445400Y230000D02*
X446600D01*
X446000Y229400D02*
Y230600D01*
X445400Y224000D02*
X446600D01*
X446000Y223400D02*
Y224600D01*
X453400Y230000D02*
X454600D01*
X454000Y229400D02*
Y230600D01*
X453400Y224000D02*
X454600D01*
X454000Y223400D02*
Y224600D01*
X461400Y230000D02*
X462600D01*
X462000Y229400D02*
Y230600D01*
X461400Y224000D02*
X462600D01*
X462000Y223400D02*
Y224600D01*
X436940Y301048D02*
X438140D01*
X437540Y300448D02*
Y301648D01*
X400300Y329800D02*
X401500D01*
X400900Y329200D02*
Y330400D01*
X400100Y348600D02*
X401300D01*
X400700Y348000D02*
Y349200D01*
X437300Y282700D02*
X438500D01*
X437900Y282100D02*
Y283300D01*
X371700Y341700D02*
X372900D01*
X372300Y341100D02*
Y342300D01*
X403300Y344900D02*
X404500D01*
X403900Y344300D02*
Y345500D01*
X406600Y348200D02*
X407800D01*
X407200Y347600D02*
Y348800D01*
X364600Y358500D02*
X365800D01*
X365200Y357900D02*
Y359100D01*
X413100Y338600D02*
X414300D01*
X413700Y338000D02*
Y339200D01*
X364100Y354600D02*
X365300D01*
X364700Y354000D02*
Y355200D01*
X364300Y350800D02*
X365500D01*
X364900Y350200D02*
Y351400D01*
X364300Y344900D02*
X365500D01*
X364900Y344300D02*
Y345500D01*
X367000Y341800D02*
X368200D01*
X367600Y341200D02*
Y342400D01*
X414400Y333400D02*
X415600D01*
X415000Y332800D02*
Y334000D01*
X515900Y203100D02*
X517100D01*
X516500Y202500D02*
Y203700D01*
X458200Y205700D02*
X459400D01*
X458800Y205100D02*
Y206300D01*
X471350Y261900D02*
X473850D01*
X472600Y260650D02*
Y263150D01*
X432100Y349000D02*
X433300D01*
X432700Y348400D02*
Y349600D01*
X364400Y380300D02*
X365600D01*
X365000Y379700D02*
Y380900D01*
X376500Y320000D02*
X377700D01*
X377100Y319400D02*
Y320600D01*
X359400Y284000D02*
X360600D01*
X360000Y283400D02*
Y284600D01*
X367400Y284000D02*
X368600D01*
X368000Y283400D02*
Y284600D01*
X359400Y278000D02*
X360600D01*
X360000Y277400D02*
Y278600D01*
X367400Y278000D02*
X368600D01*
X368000Y277400D02*
Y278600D01*
X359400Y272000D02*
X360600D01*
X360000Y271400D02*
Y272600D01*
X367400Y272000D02*
X368600D01*
X368000Y271400D02*
Y272600D01*
X359400Y266000D02*
X360600D01*
X360000Y265400D02*
Y266600D01*
X367400Y266000D02*
X368600D01*
X368000Y265400D02*
Y266600D01*
X359400Y326000D02*
X360600D01*
X360000Y325400D02*
Y326600D01*
X365400Y326000D02*
X366600D01*
X366000Y325400D02*
Y326600D01*
X359400Y318000D02*
X360600D01*
X360000Y317400D02*
Y318600D01*
X365400Y318000D02*
X366600D01*
X366000Y317400D02*
Y318600D01*
X376500Y309100D02*
X377700D01*
X377100Y308500D02*
Y309700D01*
X340000Y184200D02*
X341200D01*
X340600Y183600D02*
Y184800D01*
X372900Y189500D02*
X374100D01*
X373500Y188900D02*
Y190100D01*
X323436Y306732D02*
X324636D01*
X324036Y306132D02*
Y307332D01*
X323436Y326076D02*
X324636D01*
X324036Y325476D02*
Y326676D01*
X323436Y345421D02*
X324636D01*
X324036Y344820D02*
Y346021D01*
X323436Y364765D02*
X324636D01*
X324036Y364165D02*
Y365365D01*
X334100Y382447D02*
X335300D01*
X334700Y381846D02*
Y383047D01*
X392746Y363000D02*
X393947D01*
X393347Y362400D02*
Y363600D01*
X385700Y370100D02*
X386900D01*
X386300Y369500D02*
Y370700D01*
X376300Y326893D02*
X377500D01*
X376900Y326293D02*
Y327493D01*
X414553Y311200D02*
X415754D01*
X415154Y310600D02*
Y311800D01*
X436400Y316500D02*
X437600D01*
X437000Y315900D02*
Y317100D01*
X432000Y342000D02*
X433200D01*
X432600Y341400D02*
Y342600D01*
X464646Y305500D02*
X465846D01*
X465246Y304900D02*
Y306100D01*
X464493Y318300D02*
X465693D01*
X465093Y317700D02*
Y318900D01*
X464446Y332400D02*
X465647D01*
X465047Y331800D02*
Y333000D01*
X464446Y343500D02*
X465647D01*
X465047Y342900D02*
Y344100D01*
X304500Y226200D02*
X305700D01*
X305100Y225600D02*
Y226800D01*
X304400Y213200D02*
X305600D01*
X305000Y212600D02*
Y213800D01*
M02*
